<?xml version="1.0" encoding="UTF-8"?>
<svg version="1.1" xmlns="http://www.w3.org/2000/svg" width="512" height="512">
<path d="M0 0 C168.96 0 337.92 0 512 0 C512 168.96 512 337.92 512 512 C343.04 512 174.08 512 0 512 C0 343.04 0 174.08 0 0 Z " fill="#FEFEFE" transform="translate(0,0)"/>
<path d="M0 0 C3.45100357 3.36683275 4.95300963 5.74869304 5.13371277 10.56063843 C5.1427527 12.12813214 5.14613819 13.69566405 5.14526367 15.26318359 C5.14862228 16.11892471 5.1519809 16.97466583 5.15544128 17.8563385 C5.16498446 20.70371943 5.16689747 23.55104154 5.16796875 26.3984375 C5.171184 28.38790918 5.17454827 30.37738062 5.17805481 32.36685181 C5.18405793 36.55512029 5.185894 40.74336814 5.18530273 44.93164062 C5.18520218 50.24322233 5.19873699 55.55466711 5.21607494 60.86621666 C5.22732831 64.98807351 5.22921775 69.10989894 5.22869301 73.23176956 C5.22985768 75.18575122 5.23419218 77.13973411 5.24202538 79.09370041 C5.28953239 92.19263531 4.53523313 104.99322405 3 118 C2.80389133 119.72858767 2.60858676 121.45726675 2.41407776 123.18603516 C1.86199722 128.06447713 1.28033879 132.93885773 0.6875 137.8125 C0.58150482 138.68798492 0.47550964 139.56346985 0.36630249 140.46548462 C-1.51502445 155.91795563 -3.84694407 171.25171825 -6.44677734 186.59912109 C-7.3882057 192.38645428 -8.19715812 198.19191495 -9 204 C-7.84886719 204.23074219 -6.69773437 204.46148437 -5.51171875 204.69921875 C3.08913229 206.45056864 11.63477015 208.3310989 20.125 210.5625 C20.88079346 210.75996826 21.63658691 210.95743652 22.4152832 211.16088867 C24.61778971 211.74988881 26.8094026 212.36822744 29 213 C29.80791992 213.22413574 30.61583984 213.44827148 31.44824219 213.67919922 C37.39204424 215.45610088 37.39204424 215.45610088 40.0390625 217.82421875 C42.45507528 223.29462168 41.82923308 230.63284089 39.8125 236.1875 C38 239 38 239 35.3125 239.9375 C34.1678125 239.9684375 34.1678125 239.9684375 33 240 C33 237.03 33 234.06 33 231 C17.16 231 1.32 231 -15 231 C-15.33 223.08 -15.66 215.16 -16 207 C-16.33 219.54 -16.66 232.08 -17 245 C-18.98 245.99 -18.98 245.99 -21 247 C-21.66 246.67 -22.32 246.34 -23 246 C-23.33 228.84 -23.66 211.68 -24 194 C-24.33 206.21 -24.66 218.42 -25 231 C-40.84 231 -56.68 231 -73 231 C-73 233.97 -73 236.94 -73 240 C-76.11145209 239.7477201 -77.58903741 239.44031706 -79.75 237.125 C-82.06710728 231.3322318 -82.8318403 225.45173984 -80.8125 219.5 C-77.44634246 214.85702408 -74.47030019 213.65874945 -68.875 212.75 C-60.01601777 211.19198563 -51.40756249 208.74991245 -42.74951172 206.33691406 C-41.6617041 206.03624023 -40.57389648 205.73556641 -39.453125 205.42578125 C-38.47504883 205.15161377 -37.49697266 204.87744629 -36.48925781 204.5949707 C-34 204 -34 204 -31 204 C-31.20681396 202.7217334 -31.41362793 201.4434668 -31.62670898 200.12646484 C-32.40882689 195.27129917 -33.1744788 190.41364343 -33.93579102 185.55517578 C-34.26415789 183.47376122 -34.59667819 181.39299662 -34.93383789 179.31298828 C-36.74385556 168.12821543 -38.29404645 156.98078762 -38.97265625 145.6640625 C-39.04028671 144.73419525 -39.10791718 143.804328 -39.17759705 142.84628296 C-39.28594973 140.49129627 -39.3569861 138.33018272 -39 136 C-37.00170898 133.89599609 -37.00170898 133.89599609 -35 133 C-34.34 133.598125 -33.68 134.19625 -33 134.8125 C-29.42880299 137.62170419 -29.42880299 137.62170419 -22 140 C-22 127.13 -22 114.26 -22 101 C-24.64 102.65 -27.28 104.3 -30 106 C-30.99 105.67 -31.98 105.34 -33 105 C-30.80795913 100.49413822 -28.62377481 98.86918556 -24 97 C-23.34 97 -22.68 97 -22 97 C-22 92.05 -22 87.1 -22 82 C-29.75053822 85.54685647 -34.44811554 88.96152463 -38 97 C-38.66 97 -39.32 97 -40 97 C-40.33 98.65 -40.66 100.3 -41 102 C-41.99 102.33 -42.98 102.66 -44 103 C-45.31192079 99.06423762 -45.15574261 95.30498895 -45.16113281 91.20166016 C-45.16858017 89.85242714 -45.16858017 89.85242714 -45.17617798 88.47593689 C-45.19079653 85.49697101 -45.19760082 82.51805837 -45.203125 79.5390625 C-45.20887634 77.47024534 -45.21463408 75.40142821 -45.22039795 73.33261108 C-45.23090681 68.99322257 -45.23675035 64.65385258 -45.24023438 60.31445312 C-45.24572133 54.75362939 -45.26975423 49.19305023 -45.29820633 43.63230324 C-45.31682722 39.35836063 -45.322038 35.08447703 -45.32357025 30.81049728 C-45.32659813 28.76037635 -45.3346312 26.71025649 -45.34775543 24.66017532 C-45.36480561 21.7923036 -45.36293823 18.92503072 -45.35644531 16.05712891 C-45.37026749 14.78673515 -45.37026749 14.78673515 -45.3843689 13.49067688 C-45.35123974 8.82063423 -44.99641718 5.81083296 -42 2 C-33.66807804 -5.06950954 -9.78388116 -3.98228221 0 0 Z " fill="#6CB8EA" transform="translate(276,150)"/>
<path d="M0 0 C0.01981934 1.13091064 0.03963867 2.26182129 0.06005859 3.42700195 C0.13825705 7.77189303 0.22656699 12.11653757 0.31738281 16.46118164 C0.35481643 18.31366994 0.38978686 20.16621023 0.421875 22.01879883 C0.69749345 37.76780918 1.83328029 53.24928385 3 69 C-16.47 69 -35.94 69 -56 69 C-56.33 65.37 -56.66 61.74 -57 58 C-80.1 57.67 -103.2 57.34 -127 57 C-127 60.63 -127 64.26 -127 68 C-129.97 68 -132.94 68 -136 68 C-137.70306175 57.24435405 -139.29684212 46.53148012 -139.4375 35.625 C-139.45941406 34.8724292 -139.48132813 34.1198584 -139.50390625 33.34448242 C-139.48022203 26.73436342 -137.38746853 21.38746853 -132.6875 16.6875 C-125.19872373 11.98524513 -118.41543038 11.25001993 -109.703125 10.5 C-107.71084671 10.31363125 -105.71856859 10.12726064 -103.72629929 9.9407959 C-100.93558695 9.68260224 -98.14395858 9.43516059 -95.35229492 9.1875 C-89.8934096 8.70063158 -84.43646338 8.19211753 -78.97922897 7.68713951 C-77.62681764 7.56222509 -76.27436223 7.43778702 -74.92186356 7.31382179 C-62.203298 6.14780557 -49.51350211 4.76992782 -36.82446289 3.32025146 C-30.59521868 2.61394918 -24.36050943 1.96085126 -18.125 1.3125 C-16.29582031 1.11817383 -16.29582031 1.11817383 -14.4296875 0.91992188 C-13.25921875 0.79810547 -12.08875 0.67628906 -10.8828125 0.55078125 C-9.86590332 0.44419189 -8.84899414 0.33760254 -7.80126953 0.2277832 C-5.18504218 0.01504657 -2.62327595 -0.04234966 0 0 Z " fill="#6BB7EA" transform="translate(227,212)"/>
<path d="M0 0 C1.01114868 0.08435303 1.01114868 0.08435303 2.04272461 0.17041016 C3.00702393 0.25081543 3.97132324 0.3312207 4.96484375 0.4140625 C6.61589111 0.55183105 6.61589111 0.55183105 8.30029297 0.69238281 C10.81223966 0.90124205 13.32428792 1.10888252 15.83642578 1.31542969 C31.69066754 2.61937322 47.52700616 3.96926035 63.33056641 5.80200195 C70.26176406 6.60040573 77.19693476 7.32840804 84.140625 8.0078125 C85.02957962 8.09505081 85.91853424 8.18228912 86.83442688 8.27217102 C91.25459154 8.70504871 95.67518002 9.13286001 100.09643555 9.55444336 C127.96556854 12.24662908 127.96556854 12.24662908 134 18 C138.51019209 24.05121949 139.76561734 29.38439813 139.5 36.8125 C139.48517578 37.70670654 139.47035156 38.60091309 139.45507812 39.5222168 C139.1792629 49.13286371 137.7046846 58.5532062 136 68 C133.03 68 130.06 68 127 68 C126.67 64.7 126.34 61.4 126 58 C102.9 57.67 79.8 57.34 56 57 C56 60.63 56 64.26 56 68 C36.53 68 17.06 68 -3 68 C-2 52 -2 52 -1.47265625 44.1875 C-0.90658628 35.13038042 -0.66243907 26.07101234 -0.4375 17 C-0.39414472 15.33853474 -0.35052617 13.67707633 -0.30664062 12.015625 C-0.20140737 8.01048871 -0.09968322 4.00527811 0 0 Z " fill="#6BB7EA" transform="translate(285,212)"/>
<path d="M0 0 C0.33 0 0.66 0 1 0 C1.19916016 1.60681641 1.19916016 1.60681641 1.40234375 3.24609375 C1.5805056 4.64325769 1.75890319 6.04039159 1.9375 7.4375 C2.06801758 8.49807617 2.06801758 8.49807617 2.20117188 9.58007812 C2.38216191 13.08817968 2.38216191 13.08817968 4 16 C4.23481693 18.18292774 4.41363323 20.37203174 4.5625 22.5625 C4.64628906 23.76003906 4.73007813 24.95757812 4.81640625 26.19140625 C4.87699219 27.11824219 4.93757813 28.04507812 5 29 C5.66 29 6.32 29 7 29 C7 25.7 7 22.4 7 19 C7.33 19 7.66 19 8 19 C8 31.54 8 44.08 8 57 C-7.51 57 -23.02 57 -39 57 C-39 59.97 -39 62.94 -39 66 C-42.11145209 65.7477201 -43.58903741 65.44031706 -45.75 63.125 C-48.06710728 57.3322318 -48.8318403 51.45173984 -46.8125 45.5 C-43.44634246 40.85702408 -40.47030019 39.65874945 -34.875 38.75 C-26.01601777 37.19198563 -17.40756249 34.74991245 -8.74951172 32.33691406 C-7.6617041 32.03624023 -6.57389648 31.73556641 -5.453125 31.42578125 C-4.47504883 31.15161377 -3.49697266 30.87744629 -2.48925781 30.5949707 C0 30 0 30 3 30 C2.87359131 29.23333008 2.74718262 28.46666016 2.61694336 27.67675781 C2.04885815 24.20246551 1.49305076 20.72631764 0.9375 17.25 C0.73833984 16.0434375 0.53917969 14.836875 0.33398438 13.59375 C0.05844727 11.85351562 0.05844727 11.85351562 -0.22265625 10.078125 C-0.39547119 9.00981445 -0.56828613 7.94150391 -0.74633789 6.84082031 C-0.98212697 4.20016422 -0.84161104 2.48550551 0 0 Z " fill="#6BB7E8" transform="translate(242,324)"/>
<path d="M0 0 C0.33 0 0.66 0 1 0 C1.33 1.98 1.66 3.96 2 6 C2.99 5.01 3.98 4.02 5 3 C5 5.64 5 8.28 5 11 C6.15113281 11.23074219 7.30226563 11.46148437 8.48828125 11.69921875 C17.08913229 13.45056864 25.63477015 15.3310989 34.125 17.5625 C34.88079346 17.75996826 35.63658691 17.95743652 36.4152832 18.16088867 C38.61778971 18.74988881 40.8094026 19.36822744 43 20 C44.21187988 20.33620361 44.21187988 20.33620361 45.44824219 20.67919922 C51.39204424 22.45610088 51.39204424 22.45610088 54.0390625 24.82421875 C56.45507528 30.29462168 55.82923308 37.63284089 53.8125 43.1875 C52 46 52 46 49.3125 46.9375 C48.549375 46.958125 47.78625 46.97875 47 47 C47 44.03 47 41.06 47 38 C31.49 38 15.98 38 0 38 C0 25.46 0 12.92 0 0 Z " fill="#6CB7E7" transform="translate(262,343)"/>
<path d="M0 0 C0 4.95 0 9.9 0 15 C-2.31119792 16.20442708 -4.62239583 17.40885417 -6.93359375 18.61328125 C-9.30647644 19.90020887 -9.30647644 19.90020887 -10 23 C-6.46157845 21.8741386 -3.33810482 20.66905241 0 19 C0 31.87 0 44.74 0 58 C-4.46451672 57.10709666 -6.33982493 56.34626607 -10 54 C-11.32608822 53.31903578 -12.65686601 52.64669414 -14 52 C-16.41122368 53.96535717 -16.41122368 53.96535717 -16.1953125 57.6953125 C-16.182009 59.17200108 -16.15814835 60.64862358 -16.125 62.125 C-16.11597656 62.87910156 -16.10695312 63.63320313 -16.09765625 64.41015625 C-16.0740687 66.27357254 -16.03819719 68.13682593 -16 70 C-16.33 70 -16.66 70 -17 70 C-18.55198104 59.60172702 -20.05775515 49.20383532 -21.1875 38.75 C-21.27112793 38.00194092 -21.35475586 37.25388184 -21.44091797 36.4831543 C-21.83291164 32.70863454 -22.1074151 28.93344758 -22.23828125 25.140625 C-22.26575439 24.41907227 -22.29322754 23.69751953 -22.3215332 22.95410156 C-21.9069046 20.43421748 -20.8429246 19.70134008 -19 18 C-18.67 17.01 -18.34 16.02 -18 15 C-17.34 15 -16.68 15 -16 15 C-15.773125 14.113125 -15.54625 13.22625 -15.3125 12.3125 C-13.06277766 6.63462932 -6.59543998 0 0 0 Z " fill="#7BBAE4" transform="translate(254,232)"/>
<path d="M0 0 C3.32736696 0.57368396 4.77430028 1.49389717 7 4 C12.0257738 11.83429446 13.70483622 20.93385354 15 30 C6.42 30 -2.16 30 -11 30 C-8.96414429 18.70100081 -6.78075972 9.44462961 0 0 Z " fill="#70B8E8" transform="translate(254,114)"/>
<path d="M0 0 C21.45 0 42.9 0 65 0 C65 2.64 65 5.28 65 8 C43.55 8 22.1 8 0 8 C0 5.36 0 2.72 0 0 Z " fill="#6EB6E4" transform="translate(344,272)"/>
<path d="M0 0 C21.45 0 42.9 0 65 0 C65 2.64 65 5.28 65 8 C43.55 8 22.1 8 0 8 C0 5.36 0 2.72 0 0 Z " fill="#6BB5E3" transform="translate(103,272)"/>
<path d="M0 0 C0.33 0 0.66 0 1 0 C1 4.95 1 9.9 1 15 C2.98 15.66 4.96 16.32 7 17 C9.0061437 18.3042553 10.96632698 19.68185699 12.875 21.125 C14.32519531 22.21167969 14.32519531 22.21167969 15.8046875 23.3203125 C16.52914063 23.87460938 17.25359375 24.42890625 18 25 C18 22.69 18 20.38 18 18 C18.495 19.485 18.495 19.485 19 21 C19.99 21 20.98 21 22 21 C22.30216222 32.31534561 21.38788159 43.21917856 20 54.4375 C19.80648779 56.05524259 19.61377526 57.67308103 19.421875 59.29101562 C18.95708777 63.1951722 18.48163942 67.09788811 18 71 C17.67 71 17.34 71 17 71 C16.69615253 61.14183749 17.60120562 51.72911448 19 42 C16.9754262 43.93254772 15.57894208 45.63158688 14 48 C14.165 47.0925 14.33 46.185 14.5 45.25 C14.68153725 43.83516204 14.84560523 42.41805658 15 41 C15.11472656 40.03449219 15.22945313 39.06898438 15.34765625 38.07421875 C15.88830974 32.16344771 15.88830974 32.16344771 13.42578125 27.03515625 C11.35077707 25.4818674 9.27188124 24.24611546 7 23 C5.02 21.68 3.04 20.36 1 19 C1 31.87 1 44.74 1 58 C-0.32 57.67 -1.64 57.34 -3 57 C-3 44.46 -3 31.92 -3 19 C-5.64 20.65 -8.28 22.3 -11 24 C-11.99 23.67 -12.98 23.34 -14 23 C-11.80795913 18.49413822 -9.62377481 16.86918556 -5 15 C-4.34 15 -3.68 15 -3 15 C-3 10.38 -3 5.76 -3 1 C-2.67 1.99 -2.34 2.98 -2 4 C-1.34 4 -0.68 4 0 4 C0 2.68 0 1.36 0 0 Z " fill="#74B6E3" transform="translate(257,232)"/>
<path d="M0 0 C0 12.87 0 25.74 0 39 C-4.9558403 38.00883194 -8.07708398 37.04948771 -11.54296875 33.35546875 C-13.49389299 30.20156173 -14.00156291 27.26155535 -14.6875 23.625 C-14.93886719 22.33851563 -15.19023437 21.05203125 -15.44921875 19.7265625 C-16.42753317 13.10732874 -16.42753317 13.10732874 -16 10 C-13.953125 7.98828125 -13.953125 7.98828125 -11.25 6.3125 C-9.92742187 5.47138672 -9.92742187 5.47138672 -8.578125 4.61328125 C-7.72734375 4.08089844 -6.8765625 3.54851562 -6 3 C-5.27296875 2.43667969 -4.5459375 1.87335938 -3.796875 1.29296875 C-2 0 -2 0 0 0 Z " fill="#F3FAFC" transform="translate(254,251)"/>
<path d="M0 0 C3.08155599 1.54077799 5.77936486 3.09656513 8.625 5 C9.40101563 5.515625 10.17703125 6.03125 10.9765625 6.5625 C13 8 13 8 15 10 C15.85723972 18.08074501 15.82398617 27.73422402 10.6875 34.4375 C7.19246114 37.76997892 4.81380014 39 0 39 C0 26.13 0 13.26 0 0 Z " fill="#F5FBFC" transform="translate(258,251)"/>
<path d="M0 0 C1.66621399 1.28413391 1.66621399 1.28413391 3 3 C3.26167679 5.94184741 3.34873921 8.6673721 3.29296875 11.60546875 C3.28872391 12.44467361 3.28447906 13.28387848 3.28010559 14.14851379 C3.26331464 16.82850245 3.2256623 19.5077387 3.1875 22.1875 C3.17245367 24.00454643 3.15876518 25.82160465 3.14648438 27.63867188 C3.11340982 32.09273776 3.06162513 36.54624132 3 41 C2.67 41 2.34 41 2 41 C1.67 33.08 1.34 25.16 1 17 C0.67 29.54 0.34 42.08 0 55 C-1.32 55.66 -2.64 56.32 -4 57 C-4.66 56.67 -5.32 56.34 -6 56 C-6.33 38.84 -6.66 21.68 -7 4 C-7.33 16.21 -7.66 28.42 -8 41 C-8.33 41 -8.66 41 -9 41 C-9.0741205 35.64317867 -9.12858776 30.28665538 -9.16479492 24.92944336 C-9.1798876 23.10679933 -9.20036395 21.28419164 -9.22631836 19.46166992 C-9.26268103 16.842845 -9.27972124 14.22449993 -9.29296875 11.60546875 C-9.30845261 10.78974899 -9.32393646 9.97402924 -9.33988953 9.1335907 C-9.34158598 3.43943765 -9.34158598 3.43943765 -7.66621399 1.28413391 C-5.09984597 -0.69373941 -3.13471123 -0.3918389 0 0 Z " fill="#C9E7F1" transform="translate(259,340)"/>
<path d="M0 0 C14.85 0 29.7 0 45 0 C45 2.31 45 4.62 45 7 C40.78895013 7.94512977 36.57690127 8.38273382 32.28515625 8.75390625 C31.5517955 8.81907944 30.81843475 8.88425262 30.06285095 8.95140076 C28.51736189 9.08801795 26.97174987 9.2232504 25.42602539 9.35717773 C23.07335545 9.56155697 20.72124809 9.77167895 18.36914062 9.98242188 C16.86200951 10.11492891 15.35484894 10.24710143 13.84765625 10.37890625 C12.80207298 10.47263268 12.80207298 10.47263268 11.73536682 10.56825256 C7.81095966 10.90410152 3.93824363 11.06091845 0 11 C0 7.37 0 3.74 0 0 Z " fill="#70B8E6" transform="translate(261,384)"/>
<path d="M0 0 C14.52 0 29.04 0 44 0 C44 3.3 44 6.6 44 10 C33.98010256 10.22266439 24.1101296 9.98412763 14.125 9.0625 C13.18060059 8.97564941 12.23620117 8.88879883 11.26318359 8.79931641 C7.41274805 8.42160369 3.74063024 8.01799265 0 7 C0 4.69 0 2.38 0 0 Z " fill="#6DB7E6" transform="translate(206,384)"/>
<path d="M0 0 C1.00683838 -0.00902344 2.01367676 -0.01804688 3.05102539 -0.02734375 C4.01258545 -0.02347656 4.97414551 -0.01960937 5.96484375 -0.015625 C7.25636353 -0.01224121 7.25636353 -0.01224121 8.57397461 -0.00878906 C11.35755756 0.2806839 13.52126477 1.10438215 16.0625 2.25 C16.0625 3.9 16.0625 5.55 16.0625 7.25 C4.49786086 13.87338423 -10.50319193 9.64285654 -22.9375 7.25 C-23.2675 5.6 -23.5975 3.95 -23.9375 2.25 C-15.96453473 0.32962987 -8.16849361 0.03076404 0 0 Z " fill="#73BAE8" transform="translate(294.9375,131.75)"/>
<path d="M0 0 C9.10959165 -0.02312545 18.21917326 -0.04091612 27.3287878 -0.05181217 C31.55831371 -0.05704056 35.7878196 -0.0641374 40.01733398 -0.07543945 C44.09568543 -0.08626991 48.17401757 -0.09227717 52.25238228 -0.09487724 C53.81177639 -0.09673121 55.3711694 -0.10035127 56.93055534 -0.10573006 C59.10729162 -0.11294262 61.28394714 -0.11399085 63.46069336 -0.11352539 C65.32267616 -0.11685631 65.32267616 -0.11685631 67.22227478 -0.12025452 C70 0 70 0 71 1 C71.07205511 2.68608966 71.08386068 4.37500659 71.0625 6.0625 C71.05347656 6.98160156 71.04445313 7.90070313 71.03515625 8.84765625 C71.02355469 9.55792969 71.01195312 10.26820313 71 11 C70.01 10.67 69.02 10.34 68 10 C68 7.69 68 5.38 68 3 C46.55 3 25.1 3 3 3 C3 5.64 3 8.28 3 11 C24.45 11 45.9 11 68 11 C68 11.33 68 11.66 68 12 C59.42921353 12.02314216 50.85844005 12.04092467 42.28763008 12.05181217 C38.30811588 12.05703689 34.32862301 12.0641271 30.34912109 12.07543945 C26.51066757 12.08628291 22.6722346 12.09227994 18.83376694 12.09487724 C17.36730501 12.09672885 15.90084423 12.10034444 14.43439102 12.10573006 C12.38478388 12.11295983 10.33526232 12.11399012 8.28564453 12.11352539 C6.533582 12.11685631 6.533582 12.11685631 4.74612427 12.12025452 C2 12 2 12 0 11 C0 7.37 0 3.74 0 0 Z " fill="#DBF2F8" transform="translate(100,269)"/>
<path d="M0 0 C9.10959165 -0.02312545 18.21917326 -0.04091612 27.3287878 -0.05181217 C31.55831371 -0.05704056 35.7878196 -0.0641374 40.01733398 -0.07543945 C44.09568543 -0.08626991 48.17401757 -0.09227717 52.25238228 -0.09487724 C53.81177639 -0.09673121 55.3711694 -0.10035127 56.93055534 -0.10573006 C59.10729162 -0.11294262 61.28394714 -0.11399085 63.46069336 -0.11352539 C65.32267616 -0.11685631 65.32267616 -0.11685631 67.22227478 -0.12025452 C70 0 70 0 71 1 C71.07205511 2.68608966 71.08386068 4.37500659 71.0625 6.0625 C71.05347656 6.98160156 71.04445313 7.90070313 71.03515625 8.84765625 C71.01775391 9.91306641 71.01775391 9.91306641 71 11 C73.64 11 76.28 11 79 11 C79 11.33 79 11.66 79 12 C53.92 12 28.84 12 3 12 C3 11.67 3 11.34 3 11 C24.45 11 45.9 11 68 11 C68 8.36 68 5.72 68 3 C66.78517441 3.00666183 66.78517441 3.00666183 65.54580688 3.01345825 C57.92347403 3.05348751 50.30119194 3.08396015 42.67878151 3.10362434 C38.75976716 3.11407365 34.84083947 3.12825362 30.921875 3.15087891 C27.14176961 3.17256661 23.36174772 3.18455998 19.58158493 3.18975449 C18.13744161 3.19345759 16.693303 3.2006886 15.2491951 3.21146011 C13.23079106 3.22592017 11.21230348 3.22681645 9.19384766 3.22705078 C7.46843246 3.23371262 7.46843246 3.23371262 5.7081604 3.24050903 C3 3 3 3 1 1 C1 4.63 1 8.26 1 12 C-18.8 12 -38.6 12 -59 12 C-59 11.67 -59 11.34 -59 11 C-39.53 11 -20.06 11 0 11 C0 7.37 0 3.74 0 0 Z " fill="#CCEBF5" transform="translate(341,269)"/>
<path d="M0 0 C1.11826172 -0.00257813 2.23652344 -0.00515625 3.38867188 -0.0078125 C5.1434082 0.00378906 5.1434082 0.00378906 6.93359375 0.015625 C8.07634766 0.00789062 9.21910156 0.00015625 10.39648438 -0.0078125 C17.29209314 0.0079579 23.6761728 0.59213302 30.37109375 2.265625 C30.37109375 3.915625 30.37109375 5.565625 30.37109375 7.265625 C22.41333286 9.182333 14.58748921 9.5115887 6.43359375 9.578125 C4.92333618 9.60422852 4.92333618 9.60422852 3.38256836 9.63085938 C-5.52510932 9.62488858 -5.52510932 9.62488858 -9.62890625 6.265625 C-9.31640625 4.390625 -9.31640625 4.390625 -8.62890625 2.265625 C-5.22692629 -0.00236164 -3.99352468 0.00892052 0 0 Z " fill="#6FB7E7" transform="translate(209.62890625,131.734375)"/>
<path d="M0 0 C6.9023202 1.61054138 11.14129186 3.93631579 15 10 C16.04976964 13.14930893 16.10131595 15.38814456 16.0625 18.6875 C16.05347656 19.68136719 16.04445313 20.67523438 16.03515625 21.69921875 C16.02355469 22.45847656 16.01195312 23.21773437 16 24 C15.46890625 23.72542969 14.9378125 23.45085937 14.390625 23.16796875 C11.92607378 21.92642871 11.92607378 21.92642871 8.984375 20.80078125 C5.42270856 19.16189851 2.80856507 17.75655461 0 15 C-1.06662775 9.81618912 -0.72432637 5.21112581 0 0 Z " fill="#F4FBFB" transform="translate(258,232)"/>
<path d="M0 0 C0 4.95 0 9.9 0 15 C-2.0728125 16.11375 -2.0728125 16.11375 -4.1875 17.25 C-7.76112747 19.2222378 -10.837659 21.41263009 -14 24 C-14.66 24 -15.32 24 -16 24 C-16.55116707 17.33700248 -16.55912616 12.2177959 -12.5703125 6.65625 C-10.0139785 3.96001712 -7.35522632 2.58265392 -4 1 C-2 0 -2 0 0 0 Z " fill="#F3FAFB" transform="translate(254,232)"/>
<path d="M0 0 C0.33 0 0.66 0 1 0 C1 8.25 1 16.5 1 25 C16.84 25 32.68 25 49 25 C49 27.97 49 30.94 49 34 C48.01 34.33 47.02 34.66 46 35 C46 32.69 46 30.38 46 28 C30.49 28.33 14.98 28.66 -1 29 C-1.020625 24.400625 -1.04125 19.80125 -1.0625 15.0625 C-1.071604 13.60980713 -1.08070801 12.15711426 -1.09008789 10.66040039 C-1.09258545 9.52594482 -1.09508301 8.39148926 -1.09765625 7.22265625 C-1.10289307 6.05484619 -1.10812988 4.88703613 -1.11352539 3.68383789 C-1 1 -1 1 0 0 Z " fill="#F7FEFE" transform="translate(260,356)"/>
<path d="M0 0 C1.32 0 2.64 0 4 0 C4 17.49 4 34.98 4 53 C2.68 53 1.36 53 0 53 C0 35.51 0 18.02 0 0 Z " fill="#67AEE0" transform="translate(254,343)"/>
<path d="M0 0 C0.33 0 0.66 0 1 0 C1.33 1.65 1.66 3.3 2 5 C2.33 3.35 2.66 1.7 3 0 C3.33 0 3.66 0 4 0 C4 12.87 4 25.74 4 39 C2.68 38.67 1.36 38.34 0 38 C0 25.46 0 12.92 0 0 Z " fill="#65ADDE" transform="translate(254,251)"/>
<path d="M0 0 C1.65 0 3.3 0 5 0 C5.029729 1.69636597 5.029729 1.69636597 5.06005859 3.42700195 C5.13825705 7.77189303 5.22656699 12.11653757 5.31738281 16.46118164 C5.35481643 18.31366994 5.38978686 20.16621023 5.421875 22.01879883 C5.69749345 37.76780918 6.83328029 53.24928385 8 69 C-11.47 69 -30.94 69 -51 69 C-51 68.67 -51 68.34 -51 68 C-22.785 67.505 -22.785 67.505 6 67 C5.34 59.08 4.68 51.16 4 43 C3.87278783 35.48939343 3.80422766 28.00720887 3.875 20.5 C3.88508083 18.58594235 3.8941974 16.67187937 3.90234375 14.7578125 C3.92388247 10.17173756 3.95811051 5.5859323 4 1 C2.68 0.67 1.36 0.34 0 0 Z " fill="#A3D1EA" transform="translate(222,212)"/>
<path d="M0 0 C15.51 0 31.02 0 47 0 C47 0.99 47 1.98 47 3 C32.48 3 17.96 3 3 3 C3 5.31 3 7.62 3 10 C1.02 10 -0.96 10 -3 10 C-2.01 9.67 -1.02 9.34 0 9 C0 6.03 0 3.06 0 0 Z " fill="#DFF6FB" transform="translate(203,381)"/>
<path d="M0 0 C12.21 0 24.42 0 37 0 C37 2.97 37 5.94 37 9 C36.01 9.33 35.02 9.66 34 10 C34 7.69 34 5.38 34 3 C19.48 3 4.96 3 -10 3 C-10 2.67 -10 2.34 -10 2 C-6.7 1.67 -3.4 1.34 0 1 C0 0.67 0 0.34 0 0 Z " fill="#DDF6FB" transform="translate(272,381)"/>
<path d="M0 0 C8.58 0 17.16 0 26 0 C25.34 1.32 24.68 2.64 24 4 C24.99 4.33 25.98 4.66 27 5 C17.76 5 8.52 5 -1 5 C-1 4.67 -1 4.34 -1 4 C0.65 4 2.3 4 4 4 C4 3.34 4 2.68 4 2 C2.68 1.34 1.36 0.68 0 0 Z " fill="#F0FAFD" transform="translate(243,144)"/>
<path d="M0 0 C4.62 0 9.24 0 14 0 C14 3.3 14 6.6 14 10 C16.64 10 19.28 10 22 10 C22 10.33 22 10.66 22 11 C18.37 11 14.74 11 11 11 C11 7.7 11 4.4 11 1 C7.37 1 3.74 1 0 1 C0 0.67 0 0.34 0 0 Z " fill="#E2F4F8" transform="translate(398,270)"/>
<path d="M0 0 C0.33 0.99 0.66 1.98 1 3 C1.99 3 2.98 3 4 3 C4 6.63 4 10.26 4 14 C3.67 14 3.34 14 3 14 C3 11.69 3 9.38 3 7 C2.01 7.99 1.02 8.98 0 10 C-1.98 9.34 -3.96 8.68 -6 8 C-6 6.68 -6 5.36 -6 4 C-4 5 -2 6 0 7 C0 4.69 0 2.38 0 0 Z " fill="#6AB0E2" transform="translate(275,250)"/>
<path d="M0 0 C0.66 0 1.32 0 2 0 C3.32229189 2.64458379 3.09677194 4.67761301 3.0625 7.625 C3.05347656 8.62789063 3.04445313 9.63078125 3.03515625 10.6640625 C3.02355469 11.43492187 3.01195312 12.20578125 3 13 C1.68 13 0.36 13 -1 13 C-1.02708567 11.39592672 -1.04643483 9.7917215 -1.0625 8.1875 C-1.07410156 7.29417969 -1.08570313 6.40085937 -1.09765625 5.48046875 C-1 3 -1 3 0 0 Z " fill="#71B3E1" transform="translate(255,383)"/>
<path d="M0 0 C1.5778125 0.495 1.5778125 0.495 3.1875 1 C6.38873357 1.83966782 8.7411008 2.19750904 12 2 C12 2.99 12 3.98 12 5 C9.99956602 5 7.99869975 4.95827916 6 4.875 C2.81598187 4.74742609 2.81598187 4.74742609 0 7 C-0.99 6.67 -1.98 6.34 -3 6 C-2.42655063 3.13275314 -2.1385485 2.1385485 0 0 Z " fill="#79BCE8" transform="translate(250,336)"/>
<path d="M0 0 C2.56278699 -0.05420701 5.12441483 -0.09377007 7.6875 -0.125 C8.40873047 -0.14175781 9.12996094 -0.15851563 9.87304688 -0.17578125 C14.04876781 -0.21391569 17.2494138 0.1210081 21 2 C21.1875 4.375 21.1875 4.375 21 7 C18 9 18 9 15.8125 8.625 C15.214375 8.41875 14.61625 8.2125 14 8 C14.99 7.34 15.98 6.68 17 6 C17 5.01 17 4.02 17 3 C13.95786733 1.47893366 10.71952428 1.62570662 7.375 1.4375 C6.66859375 1.39431641 5.9621875 1.35113281 5.234375 1.30664062 C3.48981463 1.20055249 1.74493303 1.09977111 0 1 C0 0.67 0 0.34 0 0 Z " fill="#71B3E0" transform="translate(290,132)"/>
<path d="M0 0 C0.33 0.99 0.66 1.98 1 3 C2.65 2.34 4.3 1.68 6 1 C6 3.64 6 6.28 6 9 C4.68 8.67 3.36 8.34 2 8 C1.67 9.32 1.34 10.64 1 12 C0.34 11.67 -0.32 11.34 -1 11 C-0.67 7.37 -0.34 3.74 0 0 Z " fill="#7BBAE4" transform="translate(274,245)"/>
<path d="M0 0 C0.33 0 0.66 0 1 0 C1 4.62 1 9.24 1 14 C0.34 13.01 -0.32 12.02 -1 11 C-1.66 11.99 -2.32 12.98 -3 14 C-3 9.71 -3 5.42 -3 1 C-2.67 1.99 -2.34 2.98 -2 4 C-1.34 4 -0.68 4 0 4 C0 2.68 0 1.36 0 0 Z " fill="#68ADDC" transform="translate(257,232)"/>
<path d="M0 0 C0.99 0 1.98 0 3 0 C3 3.3 3 6.6 3 10 C1.68 10.33 0.36 10.66 -1 11 C-1.0270043 9.54176788 -1.04639787 8.08339325 -1.0625 6.625 C-1.07410156 5.81289063 -1.08570313 5.00078125 -1.09765625 4.1640625 C-1 2 -1 2 0 0 Z " fill="#67B2E6" transform="translate(235,261)"/>
<path d="M0 0 C0.99 0 1.98 0 3 0 C3 3.3 3 6.6 3 10 C2.01 9.67 1.02 9.34 0 9 C0 6.03 0 3.06 0 0 Z " fill="#E6F4F8" transform="translate(168,270)"/>
<path d="M0 0 C4.75 0.75 4.75 0.75 7 3 C6.01 3.99 5.02 4.98 4 6 C2.35 4.68 0.7 3.36 -1 2 C-0.67 1.34 -0.34 0.68 0 0 Z " fill="#7CB9E2" transform="translate(263,251)"/>
<path d="M0 0 C1.32 0 2.64 0 4 0 C4.1875 2.375 4.1875 2.375 4 5 C3.01 5.66 2.02 6.32 1 7 C0 6 0 6 -0.0625 2.9375 C-0.041875 1.968125 -0.02125 0.99875 0 0 Z " fill="#72B3E1" transform="translate(254,343)"/>
<path d="M0 0 C0.33 0 0.66 0 1 0 C1 2.64 1 5.28 1 8 C1.66 8.33 2.32 8.66 3 9 C1.125 8.75 1.125 8.75 -1 8 C-2.25 5.9375 -2.25 5.9375 -3 4 C-2.02727325 2.64664105 -1.0260734 1.31337396 0 0 Z " fill="#7FBCE5" transform="translate(266,346)"/>
<path d="M0 0 C0.33 0.99 0.66 1.98 1 3 C0.38125 3.2475 -0.2375 3.495 -0.875 3.75 C-3.35068687 5.20628639 -3.95125002 6.37812506 -5 9 C-5.66 9 -6.32 9 -7 9 C-5.64978174 4.58110387 -3.73884332 2.65654657 0 0 Z " fill="#86C0E4" transform="translate(97,227)"/>
<path d="M0 0 C0.66 0.33 1.32 0.66 2 1 C2 3.64 2 6.28 2 9 C1.67 8.34 1.34 7.68 1 7 C0.34 7 -0.32 7 -1 7 C-0.67 4.69 -0.34 2.38 0 0 Z " fill="#6DB9ED" transform="translate(237,275)"/>
</svg>
